<?xml version="1.0" encoding="utf-8"?>
<!-- Generator: Adobe Illustrator 16.0.0, SVG Export Plug-In . SVG Version: 6.00 Build 0)  -->
<!DOCTYPE svg PUBLIC "-//W3C//DTD SVG 1.1//EN" "http://www.w3.org/Graphics/SVG/1.1/DTD/svg11.dtd">
<svg version="1.1" id="Layer_1" xmlns="http://www.w3.org/2000/svg" xmlns:xlink="http://www.w3.org/1999/xlink" x="0px" y="0px"
	 width="208.466px" height="148.297px" viewBox="0 0 208.466 148.297" enable-background="new 0 0 208.466 148.297"
	 xml:space="preserve">
<g>
	<path d="M191.527,125.451H8.674c-1.768,0-3.331,1.138-3.876,2.82c-0.545,1.68,0.058,3.52,1.487,4.554
		c0.652,0.47,16.051,11.539,28.459,15.298c0.382,0.115,0.78,0.175,1.182,0.175h128.347c0.396,0,0.795-0.06,1.182-0.175
		c12.404-3.759,27.807-14.828,28.459-15.298c1.428-1.034,2.031-2.874,1.486-4.554C194.855,126.59,193.292,125.451,191.527,125.451z"
		/>
	<g>
		<path d="M191.382,29.572h-0.004c-3.281-0.569-6.477-0.291-9.299,0.639l3.389-19.705c0.203-1.184-0.125-2.396-0.898-3.315
			c-0.775-0.919-1.914-1.448-3.115-1.448H18.743c-1.213,0-2.367,0.541-3.138,1.478c-0.775,0.935-1.09,2.167-0.863,3.359
			l20.365,106.604c0.366,1.921,2.044,3.31,4.001,3.31h124.019c1.98,0,3.676-1.428,4.014-3.383l4.736-27.553
			c2.387,1.821,5.301,3.085,8.465,3.634c1.162,0.201,2.311,0.299,3.441,0.299c7.803,0,14.49-4.639,15.654-11.36l6.197-35.708
			C206.97,38.729,200.576,31.169,191.382,29.572z M159.695,112.347h-83.29c-0.019-0.096-0.036-0.189-0.06-0.307
			c-0.339,0.063-0.609,0.115-1.22,0.229c0.038,0.031,0.058,0.048,0.094,0.078H42.477l-5.692-29.782c0-0.058,0-0.134,0-0.188
			c-0.012,0-0.021,0-0.036,0l-0.784-4.109c0.1,0,0.203,0,0.302,0c0.271-0.861,0.048-1.43-0.644-1.785l-1.569-8.217
			c0.724,0.446,1.116,0.41,1.446-0.202c-0.352-0.343-0.742-0.724-1.189-1.159c-0.163,0.2-0.292,0.359-0.418,0.515l-4.689-24.545
			c1.353-0.406,2.621-1.068,4.113-0.553c0.382,0.211,0.897,0.493,1.412,0.778c0.537-0.75,1.977-0.159,2.166-1.629
			c-0.193-0.193-0.483-0.712-0.738-0.696c-0.823,0.054-1.635,0.302-2.281,0.441c-0.555-0.537-1.008-0.979-1.888-1.835
			c-0.294,0.584-0.517,1.028-0.654,1.299c-0.877,0.067-1.724-0.016-2.542,0.042l-3.655-19.14c0.062,0,0.102,0,0.171,0
			c-0.093-0.149-0.169-0.272-0.249-0.396l-1.392-7.294h43.63c0,0.364,0,0.726,0,1.175c0.58-0.416,0.96-0.688,1.441-1.032
			c-0.082-0.052-0.149-0.096-0.225-0.143h108.109L159.695,112.347z M197.609,45.029l-6.197,35.709
			c-0.555,3.213-4.98,5.234-9.678,4.426c-2.455-0.425-4.686-1.582-6.121-3.178c-0.701-0.777-1.83-2.366-1.5-4.252l6.197-35.708
			c0.473-2.732,3.746-4.608,7.602-4.608c0.68,0,1.375,0.06,2.076,0.181C194.677,38.413,198.166,41.815,197.609,45.029z"/>
		<path d="M66.666,29.825c0.03,0.362,0.063,0.738,0.102,1.188c0.861-0.087,1.645,0.014,2.251-0.265
			c1.116-0.513,2.118-0.419,3.066,0.207c0.712,0.469,1.431,0.543,2.133,0.443c0.475-0.396,0.887-0.736,1.3-1.08
			c1.176,0.422,2.275,1.279,3.334-0.087c0-0.626,0-1.333,0-2.343c-0.932,0.237-1.655,0.496-2.401,0.585
			c-0.779,0.093-1.578,0.022-2.149,0.022c-1.491-1.259-1.042-3.061-1.977-4.407c-1.124,0.058-2.395-0.259-3.357,1.066
			c0.583,0.583,1.114,1.114,1.466,1.468C70.043,28.944,67.877,28.741,66.666,29.825z"/>
		<path d="M83.648,54.454c-0.514,1.072-0.963,2.017-1.48,3.099c-1.309-0.372-2.456-0.698-3.619-1.028
			c-0.318,0.161-0.716,0.368-0.935,0.481c-0.372,0.726-0.664,1.299-1.042,2.037c-1.257-1.025-2.492-1.602-3.831-1.095
			c-1.445,0.991-0.229,1.836-0.035,2.719c1.305,0.307,2.45-0.014,3.644-0.96c0.984,0.421,2.004-0.04,2.935-0.596
			c0.85-0.509,1.715-0.5,2.457-0.105c0.726,0.389,1.326,0.247,2.022,0.186c0.831-1.527,1.992-2.869,1.336-4.737
			C84.523,54.454,83.979,54.454,83.648,54.454z"/>
		<path d="M35.301,25.561c-0.469,0-0.795,0-1.022,0c-0.616,1.008-1.209,1.975-1.861,3.037c0.531,0.593,1.09,1.219,1.685,1.883
			c-0.439,0.937-0.817,1.749-1.227,2.62c0.553,0.479,1.074,0.931,1.531,1.326c1.026-1.026,1.933-1.935,2.965-2.969
			C37.614,29.284,35.576,27.713,35.301,25.561z"/>
		<path d="M44.851,68.186c-0.091,0.036-0.109,0.267-0.225,0.583c0.416,0.32,0.877,0.676,1.494,1.151
			c0.024,0.472,0.056,1.177,0.1,1.886c0.004,0.059,0.107,0.113,0.175,0.179c0.636,0,1.281,0,1.957,0
			c1.667-1.327,1.615-3.731,3.178-5.113c-0.278-0.284-0.501-0.517-0.827-0.849C48.785,66.726,46.812,67.445,44.851,68.186z"/>
		<path d="M73.088,41.913c-0.235-1.07-0.861-1.263-1.913-1.179c-0.398,1.583-2.514,1.871-3.095,3.566
			c0.919,0.517,1.76,0.992,2.358,1.33c0.533,1.307-0.521,1.631-0.771,2.152c0,0.643,0,1.114,0,1.631c0.652,0,1.255,0,1.527,0
			c1.687-0.895,0.942-2.589,1.861-3.681c-0.616-0.662-1.257-1.356-1.977-2.128c0.008-0.169,0.023-0.479,0.038-0.724
			C71.839,42.525,72.485,42.209,73.088,41.913z"/>
		<path d="M38.475,51.777c0.004,0.436,0.819,0.863,1.251,1.283c1.086-0.988,2.273-0.423,3.391-0.7
			c0.678-0.507,1.416-1.058,2.1-1.571c-0.05-0.535-0.085-0.911-0.105-1.126c-1.657-0.722-1.814,1.241-2.987,1.315
			c-0.833-0.474-1.808-0.826-2.504-1.478c-0.69-0.648-1.1-1.595-1.712-2.536c-0.424,0.159-0.915,0.344-1.442,0.541
			c0,0.839,0,1.384,0,2.138C37.541,49.919,38.459,50.373,38.475,51.777z"/>
		<path d="M72.439,67.044c0.123-1.034,0.227-1.861,0.342-2.816c-0.198-0.219-0.583-0.636-0.942-1.025c-0.692,0-1.341,0-1.957,0
			c-1.034,1.08-2.796,1.568-2.697,3.689c0.788,1.137,2.379,0.515,3.357,1.294C71.306,67.726,71.956,67.335,72.439,67.044z"/>
		<path d="M56.752,51.536c1.066-0.117,1.498-0.762,2.017-1.241c0-0.637,0-1.178,0-2.118c-1.782,1.376-3.44,2.396-5.401,2.866
			c-0.422-0.382-0.823-0.744-1.372-1.239c-0.517,0.298-1.022,0.588-1.901,1.094c1.056,0.779,1.706,1.303,2.402,1.758
			c0.694,0.458,0.402,1.842,1.798,1.73C54.63,53.076,55.26,51.703,56.752,51.536z"/>
		<path d="M62.267,55.925c0.09-0.28,0.021-0.61,0.021-0.85c-1.379-0.773-3.006-0.549-3.944-1.753
			c-1.245,0.792-1.221,2.068-1.722,3.07c-0.764,1.53,0.879,2.793,0.599,4.424c0.217-0.295,0.432-0.591,0.689-0.947
			c0-0.728,0-1.533,0-2.316c0.195-0.195,0.368-0.368,0.796-0.795c0.954,0,1.988,0,3.013,0
			C61.935,56.443,62.178,56.208,62.267,55.925z"/>
		<path d="M67.062,37.866c0.215,0.427,0.612,0.978,1.305,0.891c0.227-0.028,0.449-0.056,0.716-0.087c0-0.766,0-1.472,0-2.041
			c-0.612-0.75-1.149-1.408-1.889-2.309c-1.325-0.417-2.952-1.114-5.06-0.865c0.183,0.445,0.219,0.787,0.359,0.839
			C64.409,34.988,66.095,35.922,67.062,37.866z"/>
		<path d="M51.293,94.964c-0.571,0.571-1.14,1.145-1.547,1.55c-0.205,0.69-0.352,1.188-0.495,1.671
			c0.169,0.509,0.354,1.069,0.529,1.606c0.877,0,1.744,0,2.55,0c0.23-0.23,0.402-0.403,0.644-0.646
			c0.016-1.39,0.277-2.88-0.712-4.181C51.939,94.964,51.615,94.964,51.293,94.964z"/>
		<path d="M60.196,38.945c-1.292-0.344-2.446-0.652-3.707-0.988c-0.071,0.072-0.39,0.262-0.505,0.539
			c-0.113,0.271-0.023,0.628-0.023,0.909c0.588,0.73,1.173,1.448,1.849,2.285c0.281,0,0.794,0.107,1.233-0.026
			c0.573-0.175,0.927-0.738,1.496-1.042c0.628-0.338,0.91-1.327,1.354-2.051c-0.308-0.27-0.551-0.483-0.91-0.799
			C60.756,38.11,60.499,38.494,60.196,38.945z"/>
		<path d="M46.49,64.871c-0.448-1.213-0.708-1.917-0.951-2.577c-1.782-0.692-2.9-0.743-5.042-0.161
			c0.704,0.779,1.378,1.422,2.006,2.043C43.702,64.384,44.828,64.581,46.49,64.871z"/>
		<path d="M68.072,22.538c0-1.69,0-3.204,0-4.755c-0.784,0-1.488,0-2.514,0c0.286,1.738,0.536,3.254,0.801,4.859
			C66.971,22.606,67.566,22.57,68.072,22.538z"/>
		<path d="M77.809,35.409c-0.979-0.203-2.068-0.427-3.229-0.666c-0.127,1.573-0.278,2.894,0.672,3.989
			c0.927,0.12,1.51-0.155,1.723-1.157C77.125,36.859,77.499,36.191,77.809,35.409z"/>
		<path d="M46.303,36.436c0.692-0.736,1.322-1.404,1.899-2.019c-0.738-0.742-1.342-1.351-2.012-2.022
			c-0.195,0.014-0.527-0.018-0.813,0.082c-0.203,0.071-0.346,0.32-0.684,0.66C44.628,34.5,44.863,35.713,46.303,36.436z"/>
		<path d="M57.973,103.379c0,1.019,0,1.888,0,2.78c0.792,0,1.5,0,2.268,0c0.34-0.581,0.676-1.154,1.007-1.721
			c-0.387-0.582-0.762-1.149-1.199-1.808C59.329,102.89,58.693,103.121,57.973,103.379z"/>
		<path d="M54.055,24.262c0,0.613,0,1.156,0,1.565c1.299,0.606,2.482,1.159,3.779,1.766c0-0.921,0-1.625,0-2.325
			c-1.066-0.521-2.13-1.04-3.214-1.571C54.441,23.875,54.212,24.103,54.055,24.262z"/>
		<path d="M57.738,85.088c0.211-1.443,0.408-2.804,0.597-4.132c-1.026-0.52-1.627,0.352-2.267,0.517
			c-0.172,0.579-0.318,1.077-0.438,1.474C56.084,83.872,55.825,85.759,57.738,85.088z"/>
		<path d="M71.825,105.769c-0.81,0-1.44,0-2.139,0c0,0.434,0,0.816,0,1.504c0.358,0.297,0.911,0.752,1.229,1.015
			c0.213,0.656,0.334,1.034,0.612,1.89c0.36-0.782,0.451-1.122,0.652-1.381c0.278-0.361,0.643-0.662,0.871-0.891
			C73.063,106.484,72.181,106.242,71.825,105.769z"/>
		<path d="M38.795,69.763c-0.467-0.236-0.935-0.473-1.541-0.779c-0.438,1-2.253,0.047-2.355,1.754
			c0.863,1.008,1.943,1.436,3.186,1.215C39.072,71.39,38.817,70.542,38.795,69.763z"/>
		<path d="M48.061,21.068c0-0.96,0-1.828,0-2.243c-0.521-0.726-0.835-1.162-1.263-1.756c-0.626,1.195-1.147,2.192-1.752,3.341
			c0.332,0.229,0.656,0.452,0.957,0.658C46.653,21.068,47.361,21.068,48.061,21.068z"/>
		<path d="M51.748,85.184c0.752-1.533,0.752-1.533,0.704-3.231c-0.171-0.172-0.342-0.34-0.597-0.595c-0.628,0-1.165,0-1.958,0
			c0.232,1.366,0.447,2.615,0.654,3.826C51.108,85.184,51.426,85.184,51.748,85.184z"/>
		<path d="M54.433,16.959c0.579-0.74,1.945-0.555,2-1.867c-0.37-0.197-0.76-0.402-1.426-0.754c-0.825,0.7-1.712,1.45-2.549,2.16
			c0.062,0.855,0.113,1.547,0.161,2.206C54.047,18.819,53.956,17.572,54.433,16.959z"/>
		<path d="M71.684,90.271c0,0.834,0,1.533,0,2.457c1.356-0.918,2.534-1.715,3.715-2.512c0-0.277,0-0.657,0-1.057
			C73.812,88.8,72.785,89.888,71.684,90.271z"/>
		<path d="M63.924,106.774c-0.343,0.339-0.746,0.739-1.062,1.056c0,0.8,0,1.516,0,2.236c0.633,0,1.178,0,1.74,0
			c0.173-1.156,1.454-1.904,0.992-3.292C65.077,106.774,64.53,106.774,63.924,106.774z"/>
		<path d="M38.113,22.15c0.863-0.048,1.707-0.08,2.331,0.805c0.163,0.231,0.827,0.105,1.549,0.171
			c-0.296-0.832-0.496-1.386-0.687-1.919c-0.66,0-1.133,0-1.718,0c-0.652-0.68-1.135-1.41-2.104-0.903
			C37.051,21.122,37.507,21.649,38.113,22.15z"/>
		<path d="M37.067,60.703c0.362,0,0.744,0,0.751,0c0.828-0.715,1.428-1.233,2.013-1.738c-0.036-0.75-0.071-1.441-0.111-2.214
			C37.759,57.808,36.345,59.98,37.067,60.703z"/>
		<path d="M78.869,66.062c-0.69-0.183-1.402-0.374-2.189-0.582c-0.251,0.883-0.408,1.43-0.551,1.933
			c0.198,0.39,0.399,0.779,0.549,1.071c0.773,0,1.47,0,2.191,0C78.869,67.699,78.869,67.001,78.869,66.062z"/>
		<path d="M70.562,53.032c0.028-0.199-0.369-0.461-0.843-1.01c-0.062,0.801-0.092,1.177-0.117,1.529
			c-0.52,0.5-1.034,0.997-1.368,1.319c0,1.144,0,2.011,0,2.771c0.601-0.567,1.207-1.143,1.702-1.609
			C70.168,54.972,70.423,54.01,70.562,53.032z"/>
		<path d="M71.308,99.439c-0.706-0.745-1.338-1.418-1.808-1.912c-0.933,0-1.627,0-2.42,0c0.268,1.154,1.238,1.576,1.766,2.324
			c0.674,0,1.318,0.004,1.963-0.006C70.87,99.845,70.928,99.751,71.308,99.439z"/>
		<path d="M56.587,35.746c0.61,0,1.157,0,1.675,0c0.432-1.205,1.358-2.375-0.388-3.437C56.493,33.777,56.026,35.185,56.587,35.746z"
			/>
		<path d="M44.905,55.864c-0.477,0-0.957,0-1.438,0c-0.221,0.223-0.446,0.449-0.744,0.752c0.032,0.521,0.068,1.111,0.107,1.692
			c0.806,0,1.444,0,2.162,0C45.909,56.846,45.896,56.687,44.905,55.864z"/>
		<path d="M48.208,27.027c0.638-0.459,1.249-0.899,1.821-1.311c0-0.336,0-0.65,0-0.953c-0.592-0.175-1.165-0.342-1.77-0.521
			c-0.23,0.111-0.57,0.274-1.133,0.545C47.186,25.712,46.852,26.796,48.208,27.027z"/>
		<path d="M67.694,87.345c-0.827-0.515-1.188-1.572-2.268-1.699c-0.608,1.159,0.1,2.004,0.47,2.907c0.547,0,1.092,0,1.714,0
			C67.637,88.193,67.658,87.882,67.694,87.345z"/>
		<path d="M44.354,100.843c-0.243,0.358-0.497,0.734-0.817,1.201c0.77,0.316,1.39,0.573,1.941,0.8
			c0.591-0.267,1.072-0.481,1.585-0.712c-0.271-0.518-0.478-0.915-0.672-1.289C45.714,100.843,45.066,100.843,44.354,100.843z"/>
		<path d="M75.991,54.114c0.24-0.151,0.384-0.458,0.652-0.792c-0.42-0.294-0.744-0.521-1.249-0.873c-0.175,0-0.66,0-1.147,0
			c0.1,0.105,0.201,0.208,0.301,0.314c-0.404,0.141-0.808,0.285-1.301,0.459C74.193,54.565,75.037,54.712,75.991,54.114z"/>
		<path d="M33.643,50.17c-0.521,0.441-0.752,0.64-1.102,0.937c0.386,0.792,0.746,1.528,1.102,2.253c0.388,0,0.768,0,1.211,0
			c0-0.603,0-1.147,0-1.692c-0.133,0.135-0.265,0.274-0.4,0.41C34.193,51.462,33.933,50.848,33.643,50.17z"/>
		<path d="M48.856,78.874c-0.471,0-1.008,0-1.687,0c-0.266,1.974,1.178,1.947,2.275,2.526C49.61,80.355,49.851,79.506,48.856,78.874
			z"/>
		<path d="M77.509,102.281c-0.324,0.104-0.687,0.096-1.195,0.156c2.172,1.646,2.589,1.702,4.177,0.515
			c-0.857-0.487-1.512-0.857-2.118-1.203C78.023,101.971,77.789,102.19,77.509,102.281z"/>
		<path d="M64.298,49.43c0.447,0.646,0.043,1.732,1.165,2.186c0.294-1.028,0.557-1.941,0.808-2.82
			c-0.537-0.271-0.939-0.474-1.516-0.764C64.594,48.483,64.126,49.178,64.298,49.43z"/>
		<path d="M32.535,58.121c0.555,0.617,1.106,1.039,1.884,0.447c0-0.486,0-0.974,0-1.445c-0.404-0.404-0.804-0.805-1.166-1.168
			C32.151,56.556,32.515,57.395,32.535,58.121z"/>
		<path d="M52.713,44.418c0.102-0.509,0.213-1.066,0.344-1.708c-0.76,0-1.307,0-1.446,0c-0.696,0.511-1.133,0.832-1.549,1.138
			C50.768,44.862,51.605,44.703,52.713,44.418z"/>
		<path d="M47.158,94.503c0.756-0.05,1.353-0.088,1.933-0.125c0-0.65,0-1.132,0-1.734c-0.815,0-1.631,0-2.681,0
			C46.707,93.38,46.928,93.929,47.158,94.503z"/>
		<path d="M69.738,78.91c-0.902,0-1.439,0-1.94,0c-0.441,0.891,0.039,1.4,0.517,1.808c0.621,0,1.157,0,1.907,0
			C70.045,80.047,69.897,79.498,69.738,78.91z"/>
		<path d="M42.994,71.03c-0.181-0.075-0.445,0.044-0.702,0.08c0,0.447,0,0.831,0,1.265c0.73,0.244,1.438,0.481,2.062,0.689
			c0.366-0.367,0.597-0.598,0.951-0.952C44.501,71.73,43.761,71.352,42.994,71.03z"/>
		<path d="M60.332,59.044c0,0.475,0,0.948,0,1.318c0.278,0.365,0.511,0.674,0.847,1.117c1.233-1.249,1.343-1.66,0.78-2.277
			C61.499,58.696,60.745,58.623,60.332,59.044z"/>
		<path d="M71.889,99.863c-0.1,0.012-0.184,0.18-0.267,0.271c0.232,0.238,0.459,0.469,0.68,0.697
			c1.657-0.254,1.972-0.451,2.727-1.736C73.729,98.364,72.952,99.75,71.889,99.863z"/>
		<path d="M76.053,80.259c0.625,0,1.166,0,1.792,0c0-0.749,0-1.29,0-1.929c-0.688,0.036-1.284,0.065-1.792,0.094
			C76.053,79.138,76.053,79.681,76.053,80.259z"/>
		<path d="M53.99,31.446c-0.249-0.871-0.877-1.07-1.75-0.988c-0.249,0.296-0.539,0.642-0.925,1.107
			c0.414,0.338,0.72,0.583,0.95,0.768C53.186,32.595,53.711,32.229,53.99,31.446z"/>
		<path d="M41.796,96.071c0,0.923,0,1.778,0,3.097c1.12-1.268,1.774-2.315,1.209-3.906C42.513,95.591,42.146,95.837,41.796,96.071z"
			/>
		<path d="M65.749,74.005c0,0.67,0,1.205,0,1.896c0.386,0,0.652,0,0.726,0c0.635-0.632,1.049-1.041,1.454-1.443
			C67.428,73.637,66.578,73.971,65.749,74.005z"/>
		<path d="M30.906,29.535c-0.704,0-1.4,0-2.158,0c-0.616,0.801-0.065,1.35,0.559,1.879C30.679,30.545,30.679,30.545,30.906,29.535z"
			/>
		<path d="M48.715,62.286c-0.065,0.28-0.08,0.515-0.173,0.71c-0.089,0.181-0.263,0.32-0.334,0.401c0.234,0.47,0.431,0.865,0.7,1.406
			c1.13-0.973,1.138-0.973,1.149-2.193c0-0.126-0.143-0.253-0.187-0.324C49.457,62.286,49.083,62.286,48.715,62.286z"/>
		<path d="M62.353,76.605c-0.305-1.064-0.931-1.264-1.806-1.182c-0.247,0.297-0.537,0.643-0.884,1.059
			c0.581,0.336,1.015,0.588,1.373,0.797C61.478,77.052,61.883,76.845,62.353,76.605z"/>
		<path d="M61.668,72.154c0.189,0.527,0.251,1.086,0.557,1.428c0.261,0.293,0.8,0.332,1.45,0.568
			C63.594,72.112,63.554,72.072,61.668,72.154z"/>
		<path d="M67.738,92.201c0.093,1.57,0.093,1.57,1.635,1.785C69.64,92.294,69.462,92.103,67.738,92.201z"/>
		<path d="M43.575,80.383c-0.659,0-1.197,0-1.774,0c0,0.46,0,0.837,0,1.405c0.833-0.097,1.645,0.14,2.641-0.317
			C44.046,80.976,43.768,80.626,43.575,80.383z"/>
		<path d="M44.151,75.429c-0.485,0-0.808,0-0.808,0c-0.539,0.604-0.935,1.044-1.253,1.398c0.199,0.094,0.589,0.271,0.899,0.42
			c0.45-0.239,0.839-0.442,1.229-0.646C44.195,76.193,44.173,75.813,44.151,75.429z"/>
		<path d="M57.389,66.505c0.394,0.207,0.823,0.434,1.658,0.875c-0.312-1.503-0.537-2.575-0.863-4.158
			C57.838,64.654,57.627,65.517,57.389,66.505z"/>
		<path d="M62.746,23.562c0.048,0.648,0.077,1.082,0.107,1.507c0.915-0.036,1.776,0.267,2.279-0.69
			C64.58,23.192,63.665,23.733,62.746,23.562z"/>
		<path d="M37.879,18.101c-0.259-0.368-0.511-0.732-0.696-0.994c-1.201,0.445-1.452,1.066-1.188,2.022
			C37.049,19.384,37.624,19.03,37.879,18.101z"/>
		<path d="M54.883,75.783c0.975,0.191,1.846,0.345,2.502-0.6C55.952,74.035,55.813,74.061,54.883,75.783z"/>
		<path d="M63.669,14.85c-0.461,0-0.841,0-1.301,0c0,0.638,0,1.237,0,1.872c0.464,0,0.844,0,1.301,0
			C63.669,16.081,63.669,15.484,63.669,14.85z"/>
		<path d="M30.103,35.012c-0.179,0.859-0.213,1.682,0.619,2.243c0.69-0.396,1.04-1.014,0.674-1.72
			C31.198,35.155,30.814,34.508,30.103,35.012z"/>
		<path d="M39.921,88.201c0,0.677,0,1.273,0,1.926c1.096-0.138,1.438-0.725,1.341-1.633c-0.016-0.131-0.159-0.249-0.187-0.293
			C40.643,88.201,40.265,88.201,39.921,88.201z"/>
		<path d="M47.807,89.021c0.449,0,0.823,0,1.483,0c-0.294-0.76-0.525-1.354-0.779-2.012C47.747,87.686,47.2,88.243,47.807,89.021z"
			/>
		<path d="M60.413,46.129c0,0.595,0,0.972,0,1.45c0.527-0.044,0.963-0.082,1.303-0.109c0-0.551,0-0.925,0-1.34
			C61.255,46.129,60.875,46.129,60.413,46.129z"/>
		<path d="M74.953,73.542c-0.595,0-0.971,0-1.45,0c0.046,0.524,0.082,0.96,0.109,1.3c0.552,0,0.927,0,1.341,0
			C74.953,74.381,74.953,74.001,74.953,73.542z"/>
		<path d="M40.866,29.009c0.533-0.049,0.965-0.089,1.38-0.125c0-0.481,0-0.804,0-1.239c-0.489,0-0.977,0-1.38,0
			C40.866,28.152,40.866,28.53,40.866,29.009z"/>
		<path d="M69.532,68.089c-0.621,1.043-0.985,1.66-1.055,1.779c0.171,0.621,0.253,0.923,0.303,1.098
			C69.894,70.362,69.6,69.523,69.532,68.089z"/>
		<path d="M61.633,22.166c-2.017,0.146-2.017,0.146-2.12,1.432C60.459,23.678,60.729,22.794,61.633,22.166z"/>
		<path d="M30.421,20.362c0.239,0.799,0.497,1.382,1.702,1.227C31.805,20.591,31.511,19.975,30.421,20.362z"/>
		<path d="M61.839,92.531c-0.135,1.056,0.448,1.312,1.673,1.68C63.103,93.047,62.844,92.473,61.839,92.531z"/>
		<path d="M42.425,48.489c0.199,0,0.414,0,0.716,0c0-0.625,0-1.217,0-2.01C42.276,47.113,42.007,47.686,42.425,48.489z"/>
		<path d="M65.469,44.061c-0.121,0.135-0.244,0.269-0.368,0.404c0.274,0.378,0.549,0.755,0.827,1.137
			c0.314-0.302,0.537-0.517,0.846-0.813C66.314,44.532,65.893,44.297,65.469,44.061z"/>
		<path d="M30.146,19.83c-0.276-0.368-0.553-0.738-0.8-1.068c-0.338,0.283-0.568,0.478-0.911,0.762
			c0.513,0.274,0.935,0.501,1.356,0.726C29.912,20.11,30.027,19.971,30.146,19.83z"/>
		<path d="M38.734,64.111c-0.378,0.074-0.597,0.115-0.843,0.164c0,0.439,0,0.816,0,1.438c0.43-0.084,0.648-0.127,0.955-0.188
			C38.81,65.032,38.773,64.596,38.734,64.111z"/>
		<path d="M77.883,82.83c-0.466,0-0.899,0-1.379,0c0,0.29,0,0.507,0,0.809c0.466,0,0.901,0,1.379,0
			C77.883,83.349,77.883,83.132,77.883,82.83z"/>
		<path d="M38.348,75.669c0.249,0.247,0.477,0.478,0.734,0.734c0.212-0.238,0.423-0.479,0.674-0.762
			c-0.171-0.184-0.374-0.404-0.68-0.734C38.778,75.218,38.563,75.445,38.348,75.669z"/>
		<path d="M34.693,13.915c-0.772,0-1.201,0-1.75,0c0.052,0.35,0.092,0.623,0.169,1.124C33.663,14.647,34.044,14.376,34.693,13.915z"
			/>
		<path d="M38.722,91.988c0.478,0,0.692,0,0.995,0c0-0.457,0-0.887,0-1.316c-0.115-0.034-0.231-0.064-0.344-0.096
			C39.175,91.001,38.98,91.427,38.722,91.988z"/>
		<path d="M53.53,89.434c0.668-0.491,1.042-0.768,1.672-1.231c-0.773,0-1.203,0-1.672,0C53.53,88.501,53.53,88.716,53.53,89.434z"/>
		<path d="M56.573,91.731c0.407-0.334,0.676-0.555,1.269-1.036c-0.768,0-1.094,0-1.479,0C56.434,91.044,56.478,91.263,56.573,91.731
			z"/>
		<path d="M43.913,91.618c0.107-0.109,0.215-0.217,0.32-0.326c-0.042-0.219-0.083-0.436-0.146-0.756
			c-0.336,0.063-0.61,0.116-1.219,0.229C43.374,91.176,43.642,91.397,43.913,91.618z"/>
		<path d="M56.995,95.06c0,0.595,0,1.189,0,1.784c0.139-0.01,0.278-0.022,0.417-0.034c-0.038-0.59-0.075-1.18-0.115-1.768
			C57.197,95.046,57.094,95.054,56.995,95.06z"/>
		<path d="M57.43,30.334c-0.063-0.338-0.115-0.61-0.229-1.219c-0.413,0.505-0.634,0.774-0.853,1.042
			c0.107,0.107,0.217,0.214,0.324,0.322C56.892,30.438,57.11,30.396,57.43,30.334z"/>
		<path d="M61.449,100.83c0.274,0,0.434,0,0.708,0c0-0.326,0-0.652,0-1.038c-0.352,0.071-0.568,0.115-0.887,0.181
			C61.342,100.31,61.397,100.582,61.449,100.83z"/>
		<path d="M59.27,71.899c0-0.431,0-0.864,0-1.296c-0.143,0.014-0.29,0.027-0.434,0.041c0.062,0.428,0.124,0.855,0.186,1.281
			C59.103,71.917,59.187,71.91,59.27,71.899z"/>
		<path d="M77.833,94.304c-0.652-0.302-0.988-0.457-1.249-0.578c0,0.096,0,0.422,0,0.795C76.922,94.463,77.137,94.425,77.833,94.304
			z"/>
		<path d="M43.135,32.319c-0.008-0.139-0.018-0.278-0.026-0.417c-0.274,0.06-0.545,0.117-0.817,0.177
			c0.01,0.082,0.022,0.161,0.034,0.241C42.596,32.319,42.867,32.319,43.135,32.319z"/>
		<path d="M50.068,105.555c0.161,0,0.324,0,0.487,0c0-0.056,0-0.109,0-0.163c-0.163,0-0.326,0-0.487,0
			C50.068,105.446,50.068,105.5,50.068,105.555z"/>
		<path d="M53.814,57.33c0-0.161,0-0.324,0-0.489c-0.054,0-0.109,0-0.163,0c0,0.165,0,0.328,0,0.489
			C53.705,57.33,53.761,57.33,53.814,57.33z"/>
	</g>
</g>
</svg>
